<svg width="602" height="336" viewBox="0 0 602 336" fill="none" xmlns="http://www.w3.org/2000/svg">
<rect width="602" height="336" fill="#F5F5F5"/>
<rect width="602" height="336" fill="white"/>
<mask id="mask0_114_2" style="mask-type:luminance" maskUnits="userSpaceOnUse" x="203" y="68" width="82" height="47">
<path d="M204.61 72.5181C208.084 75.5327 223.171 82.1065 235.294 87.3892C266.676 101.064 278.791 107.183 284.248 114.299L280.316 108.553C277.288 104.441 277.288 104.441 270.368 97.0077C267.634 94.2517 264.887 91.0904 261.895 88.6157C255.52 83.8464 246.664 77.0728 232.504 73.2661C226.971 71.7781 222.367 70.5633 215.38 69.3566C215.075 69.3033 214.664 69.2553 214.358 69.2153C212.936 69.038 210.351 68.7609 208.015 68.7609C204.239 68.7609 201.115 69.4847 204.61 72.5181Z" fill="white"/>
</mask>
<g mask="url(#mask0_114_2)">
<path d="M204.61 72.5181C208.084 75.5327 223.171 82.1065 235.294 87.3892C266.676 101.064 278.791 107.183 284.248 114.299L280.316 108.553C277.288 104.441 277.288 104.441 270.368 97.0077C267.634 94.2517 264.887 91.0904 261.895 88.6157C255.52 83.8464 246.664 77.0728 232.504 73.2661C226.971 71.7781 222.367 70.5633 215.38 69.3566C215.075 69.3033 214.664 69.2553 214.358 69.2153C212.936 69.038 210.351 68.7609 208.015 68.7609C204.239 68.7609 201.115 69.4847 204.61 72.5181Z" fill="#192C88" fill-opacity="0.7"/>
</g>
<mask id="mask1_114_2" style="mask-type:luminance" maskUnits="userSpaceOnUse" x="153" y="69" width="147" height="106">
<path d="M168.742 72.7905C166.211 73.4825 163.033 74.9906 160.593 75.9533C137.263 86.66 179.097 105.95 219.554 124.604C273.105 149.294 298.43 162.304 299.305 174.886C299.518 172.106 299.558 168.385 299.642 165.6C299.585 160.322 299.585 160.322 298.221 149.942V150.536C297.661 147.079 296.428 143.156 295.563 139.763C292.086 129.413 263.283 117.586 229.934 102.517C203.247 90.4598 193.798 87.1597 186.907 82.7704C181.638 79.413 173.298 73.0559 183.973 69.5946C176.471 70.1706 168.742 72.7905 168.742 72.7905Z" fill="white"/>
</mask>
<g mask="url(#mask1_114_2)">
<path d="M168.742 72.7905C166.211 73.4825 163.033 74.9906 160.593 75.9533C137.263 86.66 179.097 105.95 219.554 124.604C273.105 149.294 298.43 162.304 299.305 174.886C299.518 172.106 299.558 168.385 299.642 165.6C299.585 160.322 299.585 160.322 298.221 149.942V150.536C297.661 147.079 296.428 143.156 295.563 139.763C292.086 129.413 263.283 117.586 229.934 102.517C203.247 90.4598 193.798 87.1597 186.907 82.7704C181.638 79.413 173.298 73.0559 183.973 69.5946C176.471 70.1706 168.742 72.7905 168.742 72.7905Z" fill="#192C88" fill-opacity="0.7"/>
</g>
<mask id="mask2_114_2" style="mask-type:luminance" maskUnits="userSpaceOnUse" x="112" y="91" width="182" height="142">
<path d="M130.164 96.7982C126.554 100.418 126.554 100.418 120.224 108.432C118.102 111.493 115.486 115.714 113.559 118.902C105.066 135.464 146.663 157.899 192.882 179.672C246.712 205.032 282.603 221.168 274.523 232.902L276.158 231.845C285.648 220.818 289.244 214.404 292.92 202.668C297.604 187.7 250.462 166.802 202.494 144.322C158.01 123.476 122.615 105.617 136.943 91.3783C134.919 93.0956 132.108 94.9928 130.164 96.7982Z" fill="white"/>
</mask>
<g mask="url(#mask2_114_2)">
<path d="M130.164 96.7982C126.554 100.418 126.554 100.418 120.224 108.432C118.102 111.493 115.486 115.714 113.559 118.902C105.066 135.464 146.663 157.899 192.882 179.672C246.712 205.032 282.603 221.168 274.523 232.902L276.158 231.845C285.648 220.818 289.244 214.404 292.92 202.668C297.604 187.7 250.462 166.802 202.494 144.322C158.01 123.476 122.615 105.617 136.943 91.3783C134.919 93.0956 132.108 94.9928 130.164 96.7982Z" fill="#192C88" fill-opacity="0.7"/>
</g>
<g style="mix-blend-mode:darken">
<mask id="mask3_114_2" style="mask-type:luminance" maskUnits="userSpaceOnUse" x="47" y="14" width="256" height="308">
<path d="M191.11 14.3594C150.198 17.134 112.814 35.6731 85.8458 66.5638C58.8792 97.4558 45.5538 136.998 48.3285 177.91C51.1032 218.822 69.6418 256.205 100.533 283.172C128.746 307.802 164.17 321.053 201.27 321.052C204.79 321.052 208.334 320.93 211.879 320.69C235.57 319.085 257.938 312.273 278.362 300.442L251.05 253.285C237.907 260.897 223.488 265.282 208.194 266.32C153.715 270.02 106.393 228.7 102.699 174.225C99.0072 119.749 140.321 72.4238 194.797 68.7305C221.188 66.9411 246.699 75.5381 266.626 92.9381L302.47 51.8906C274.254 27.2519 238.823 13.9987 201.719 14C198.198 14 194.656 14.1194 191.11 14.3594Z" fill="white"/>
</mask>
<g mask="url(#mask3_114_2)">
<path d="M191.11 14.3594C150.198 17.134 112.814 35.6731 85.8458 66.5638C58.8792 97.4558 45.5538 136.998 48.3285 177.91C51.1032 218.822 69.6418 256.205 100.533 283.172C128.746 307.802 164.17 321.053 201.27 321.052C204.79 321.052 208.334 320.93 211.879 320.69C235.57 319.085 257.938 312.273 278.362 300.442L251.05 253.285C237.907 260.897 223.488 265.282 208.194 266.32C153.715 270.02 106.393 228.7 102.699 174.225C99.0072 119.749 140.321 72.4238 194.797 68.7305C221.188 66.9411 246.699 75.5381 266.626 92.9381L302.47 51.8906C274.254 27.2519 238.823 13.9987 201.719 14C198.198 14 194.656 14.1194 191.11 14.3594Z" fill="#192C88" fill-opacity="0.7"/>
</g>
</g>
<mask id="mask4_114_2" style="mask-type:luminance" maskUnits="userSpaceOnUse" x="284" y="29" width="150" height="66">
<path d="M360.515 29C343.299 29 336.031 34.6961 324.553 46.9388C312.712 59.5708 284 94.3333 284 94.3333H376.621C376.785 94.3333 376.951 93.176 377.124 92.528C381.489 76.1853 389.863 61.7828 402.009 49.4668C410.72 40.6348 421.183 34.3346 433.075 29H360.515Z" fill="white"/>
</mask>
<g mask="url(#mask4_114_2)">
<path d="M360.515 29C343.299 29 336.031 34.6961 324.553 46.9388C312.712 59.5708 284 94.3333 284 94.3333H376.621C376.785 94.3333 376.951 93.176 377.124 92.528C381.489 76.1853 389.863 61.7828 402.009 49.4668C410.72 40.6348 421.183 34.3346 433.075 29H360.515Z" fill="#192C88" fill-opacity="0.7"/>
</g>
<mask id="mask5_114_2" style="mask-type:luminance" maskUnits="userSpaceOnUse" x="383" y="30" width="201" height="292">
<path d="M517.561 30.3346H478.601C451.38 30.3346 428.204 38.7482 411.581 55.6042C401.057 66.2748 392.375 79.4484 388.219 95.0111C385.507 105.155 383.095 115.956 383.095 127.758V321H411.095V128.146C411.095 106.616 417.609 89.1535 429.411 77.1881C440.871 65.5668 458.353 59.668 478.601 59.668H565.099C569.371 49.0013 574.228 38.3333 583.184 30.3346H517.561Z" fill="white"/>
</mask>
<g mask="url(#mask5_114_2)">
<path d="M517.561 30.3346H478.601C451.38 30.3346 428.204 38.7482 411.581 55.6042C401.057 66.2748 392.375 79.4484 388.219 95.0111C385.507 105.155 383.095 115.956 383.095 127.758V321H411.095V128.146C411.095 106.616 417.609 89.1535 429.411 77.1881C440.871 65.5668 458.353 59.668 478.601 59.668H565.099C569.371 49.0013 574.228 38.3333 583.184 30.3346H517.561Z" fill="#192C88" fill-opacity="0.7"/>
</g>
<mask id="mask6_114_2" style="mask-type:luminance" maskUnits="userSpaceOnUse" x="420" y="69" width="142" height="253">
<path d="M478.601 69.0013C460.867 69.0013 445.719 73.8789 436.024 83.7096C425.839 94.0389 420.428 108.747 420.428 128.051V128.115V321H449.761V127.542L450.375 127.085C450.208 115.151 453.061 106.352 457.852 101.497C461.963 97.328 469.148 95.6679 478.601 95.6679H517.561H522.267C546.169 95.6679 554.313 83.6693 561.12 69.0013H478.601Z" fill="white"/>
</mask>
<g mask="url(#mask6_114_2)">
<path d="M478.601 69.0013C460.867 69.0013 445.719 73.8789 436.024 83.7096C425.839 94.0389 420.428 108.747 420.428 128.051V128.115V321H449.761V127.542L450.375 127.085C450.208 115.151 453.061 106.352 457.852 101.497C461.963 97.328 469.148 95.6679 478.601 95.6679H517.561H522.267C546.169 95.6679 554.313 83.6693 561.12 69.0013H478.601Z" fill="#192C88" fill-opacity="0.7"/>
</g>
<mask id="mask7_114_2" style="mask-type:luminance" maskUnits="userSpaceOnUse" x="18" y="48" width="342" height="255">
<path d="M320.199 291.813C340.292 267.526 359.407 244.215 359.407 244.215C267.579 260.668 -64.9836 117.281 74.359 48C-124.854 89.66 263.668 360.145 320.199 291.813Z" fill="white"/>
</mask>
<g mask="url(#mask7_114_2)">
<path d="M320.199 291.813C340.292 267.526 359.407 244.215 359.407 244.215C267.579 260.668 -64.9836 117.281 74.359 48C-124.854 89.66 263.668 360.145 320.199 291.813Z" fill="#192C88" fill-opacity="0.7"/>
</g>
</svg>
