<svg width="602" height="336" viewBox="0 0 602 336" fill="none" xmlns="http://www.w3.org/2000/svg">
<g clip-path="url(#clip0_120_427)">
<mask id="mask0_120_427" style="mask-type:luminance" maskUnits="userSpaceOnUse" x="208" y="62" width="82" height="46">
<path d="M210.156 65.8416C213.63 68.8562 228.717 75.43 240.84 80.7126C272.222 94.3873 284.337 100.507 289.794 107.623L285.862 101.876C282.834 97.7641 282.834 97.7645 275.914 90.3311C273.18 87.5751 270.433 84.4139 267.441 81.9392C261.066 77.1699 252.21 70.3963 238.05 66.5896C232.517 65.1016 227.913 63.8868 220.926 62.6801C220.621 62.6268 220.21 62.5788 219.904 62.5388C218.482 62.3615 215.897 62.0844 213.561 62.0844C209.785 62.0844 206.661 62.8082 210.156 65.8416Z" fill="white"/>
</mask>
<g mask="url(#mask0_120_427)">
<path d="M210.156 65.8416C213.63 68.8562 228.717 75.43 240.84 80.7126C272.222 94.3873 284.337 100.507 289.794 107.623L285.862 101.876C282.834 97.7641 282.834 97.7645 275.914 90.3311C273.18 87.5751 270.433 84.4139 267.441 81.9392C261.066 77.1699 252.21 70.3963 238.05 66.5896C232.517 65.1016 227.913 63.8868 220.926 62.6801C220.621 62.6268 220.21 62.5788 219.904 62.5388C218.482 62.3615 215.897 62.0844 213.561 62.0844C209.785 62.0844 206.661 62.8082 210.156 65.8416Z" fill="url(#paint0_linear_120_427)"/>
</g>
<mask id="mask1_120_427" style="mask-type:luminance" maskUnits="userSpaceOnUse" x="159" y="62" width="147" height="107">
<path d="M174.288 66.114C171.757 66.806 168.579 68.3141 166.139 69.2768C142.809 79.9834 184.643 99.2738 225.1 117.927C278.651 142.618 303.976 155.627 304.851 168.21C305.064 165.43 305.104 161.709 305.188 158.923C305.131 153.646 305.131 153.646 303.767 143.266V143.859C303.207 140.402 301.975 136.479 301.109 133.086C297.632 122.737 268.829 110.91 235.48 95.8406C208.793 83.7832 199.344 80.4832 192.453 76.0938C187.184 72.7365 178.844 66.3794 189.519 62.9181C182.017 63.4941 174.288 66.114 174.288 66.114Z" fill="white"/>
</mask>
<g mask="url(#mask1_120_427)">
<path d="M174.288 66.114C171.757 66.806 168.579 68.3141 166.139 69.2768C142.809 79.9834 184.643 99.2738 225.1 117.927C278.651 142.618 303.976 155.627 304.851 168.21C305.064 165.43 305.104 161.709 305.188 158.923C305.131 153.646 305.131 153.646 303.767 143.266V143.859C303.207 140.402 301.975 136.479 301.109 133.086C297.632 122.737 268.829 110.91 235.48 95.8406C208.793 83.7832 199.344 80.4832 192.453 76.0938C187.184 72.7365 178.844 66.3794 189.519 62.9181C182.017 63.4941 174.288 66.114 174.288 66.114Z" fill="url(#paint1_linear_120_427)"/>
</g>
<mask id="mask2_120_427" style="mask-type:luminance" maskUnits="userSpaceOnUse" x="117" y="84" width="182" height="143">
<path d="M135.711 90.1217C132.1 93.7417 132.1 93.7418 125.771 101.755C123.648 104.816 121.032 109.038 119.105 112.226C110.612 128.787 152.209 151.222 198.428 172.995C252.258 198.355 288.149 214.491 280.069 226.226L281.704 225.169C291.195 214.142 294.79 207.727 298.466 195.991C303.15 181.023 256.008 160.126 208.04 137.646C163.556 116.799 128.161 98.9404 142.489 84.7017C140.465 86.4191 137.655 88.3163 135.711 90.1217Z" fill="white"/>
</mask>
<g mask="url(#mask2_120_427)">
<path d="M135.711 90.1217C132.1 93.7417 132.1 93.7418 125.771 101.755C123.648 104.816 121.032 109.038 119.105 112.226C110.612 128.787 152.209 151.222 198.428 172.995C252.258 198.355 288.149 214.491 280.069 226.226L281.704 225.169C291.195 214.142 294.79 207.727 298.466 195.991C303.15 181.023 256.008 160.126 208.04 137.646C163.556 116.799 128.161 98.9404 142.489 84.7017C140.465 86.4191 137.655 88.3163 135.711 90.1217Z" fill="url(#paint2_linear_120_427)"/>
</g>
<mask id="mask3_120_427" style="mask-type:luminance" maskUnits="userSpaceOnUse" x="106" y="139" width="156" height="118">
<path d="M107.949 145.158C107.453 149.079 107.059 154.339 106.823 158.287C106.72 163.587 106.72 163.587 107.779 174.046L108.252 177.06C111.365 189.635 133.271 203.784 183.865 225.9C220.811 242.051 238.136 251.255 230.057 256.304C243.581 252.282 254.232 252.65 261.001 242.455C267.277 233.007 229.264 215.632 186.968 196.472C130.32 170.81 107.74 154.232 109.029 139.251L107.949 145.158Z" fill="white"/>
</mask>
<g mask="url(#mask3_120_427)">
<path d="M107.949 145.158C107.453 149.079 107.059 154.339 106.823 158.287C106.72 163.587 106.72 163.587 107.779 174.046L108.252 177.06C111.365 189.635 133.271 203.784 183.865 225.9C220.811 242.051 238.136 251.255 230.057 256.304C243.581 252.282 254.232 252.65 261.001 242.455C267.277 233.007 229.264 215.632 186.968 196.472C130.32 170.81 107.74 154.232 109.029 139.251L107.949 145.158Z" fill="url(#paint3_linear_120_427)"/>
</g>
<mask id="mask4_120_427" style="mask-type:luminance" maskUnits="userSpaceOnUse" x="116" y="203" width="95" height="57">
<path d="M124.479 216.576C127.387 220.767 127.386 220.767 134.092 228.395L138.729 232.971C154.107 247.007 175.289 248.647 192.74 258.256C192.577 258.27 192.362 258.281 192.202 258.291L192.492 258.333C192.676 258.357 192.92 258.39 193.102 258.414C193.33 258.443 193.632 258.482 193.858 258.51C194.2 258.552 194.539 258.591 194.879 258.631C195.396 258.688 195.914 258.743 196.434 258.795C196.933 258.843 197.598 258.901 198.098 258.945C200.401 259.135 203.487 259.145 205.795 259.222C219.453 258.595 202.631 250.943 182.628 242.475C141.177 224.927 123.378 214.442 116.956 203.79C119.065 207.71 122.085 212.823 124.479 216.576Z" fill="white"/>
</mask>
<g mask="url(#mask4_120_427)">
<path d="M124.479 216.576C127.387 220.767 127.386 220.767 134.092 228.395L138.729 232.971C154.107 247.007 175.289 248.647 192.74 258.256C192.577 258.27 192.362 258.281 192.202 258.291L192.492 258.333C192.676 258.357 192.92 258.39 193.102 258.414C193.33 258.443 193.632 258.482 193.858 258.51C194.2 258.552 194.539 258.591 194.879 258.631C195.396 258.688 195.914 258.743 196.434 258.795C196.933 258.843 197.598 258.901 198.098 258.945C200.401 259.135 203.487 259.145 205.795 259.222C219.453 258.595 202.631 250.943 182.628 242.475C141.177 224.927 123.378 214.442 116.956 203.79C119.065 207.71 122.085 212.823 124.479 216.576Z" fill="url(#paint4_linear_120_427)"/>
</g>
<mask id="mask5_120_427" style="mask-type:luminance" maskUnits="userSpaceOnUse" x="53" y="7" width="256" height="308">
<path d="M196.656 7.68285C155.744 10.4575 118.36 28.9966 91.392 59.8873C64.4253 90.7793 51.1 130.322 53.8746 171.234C56.6493 212.146 75.188 249.528 106.079 276.495C134.292 301.126 169.716 314.377 206.816 314.375C210.336 314.375 213.88 314.254 217.425 314.014C241.116 312.409 263.484 305.597 283.908 293.766L256.596 246.609C243.453 254.221 229.035 258.606 213.74 259.643C159.261 263.343 111.939 222.023 108.245 167.549C104.553 113.073 145.867 65.7473 200.343 62.0539C226.735 60.2646 252.245 68.8616 272.172 86.2616L308.016 45.2141C279.8 20.5754 244.369 7.32214 207.265 7.32348C203.744 7.32348 200.203 7.44285 196.656 7.68285Z" fill="white"/>
</mask>
<g mask="url(#mask5_120_427)">
<path d="M196.656 7.68285C155.744 10.4575 118.36 28.9966 91.392 59.8873C64.4253 90.7793 51.1 130.322 53.8746 171.234C56.6493 212.146 75.188 249.528 106.079 276.495C134.292 301.126 169.716 314.377 206.816 314.375C210.336 314.375 213.88 314.254 217.425 314.014C241.116 312.409 263.484 305.597 283.908 293.766L256.596 246.609C243.453 254.221 229.035 258.606 213.74 259.643C159.261 263.343 111.939 222.023 108.245 167.549C104.553 113.073 145.867 65.7473 200.343 62.0539C226.735 60.2646 252.245 68.8616 272.172 86.2616L308.016 45.2141C279.8 20.5754 244.369 7.32214 207.265 7.32348C203.744 7.32348 200.203 7.44285 196.656 7.68285Z" fill="url(#paint5_linear_120_427)"/>
</g>
<mask id="mask6_120_427" style="mask-type:luminance" maskUnits="userSpaceOnUse" x="22" y="59" width="342" height="256">
<path d="M324.745 303.478C344.839 279.191 363.953 255.879 363.953 255.879C272.125 272.333 -60.4375 128.946 78.9052 59.6647C-120.308 101.325 268.215 371.81 324.745 303.478Z" fill="white"/>
</mask>
<g mask="url(#mask6_120_427)">
<path d="M324.745 303.478C344.839 279.191 363.953 255.879 363.953 255.879C272.125 272.333 -60.4375 128.946 78.9052 59.6647C-120.308 101.325 268.215 371.81 324.745 303.478Z" fill="url(#paint6_linear_120_427)"/>
</g>
<mask id="mask7_120_427" style="mask-type:luminance" maskUnits="userSpaceOnUse" x="288" y="19" width="150" height="67">
<path d="M364.628 19.8173C347.412 19.8173 340.144 25.5134 328.667 37.7561C316.825 50.3881 288.113 85.1506 288.113 85.1506H380.735C380.899 85.1506 381.064 83.9933 381.237 83.3453C385.603 67.0026 393.976 52.6001 406.123 40.2841C414.833 31.4521 425.296 25.152 437.188 19.8173H364.628Z" fill="white"/>
</mask>
<g mask="url(#mask7_120_427)">
<path d="M364.628 19.8173C347.412 19.8173 340.144 25.5134 328.667 37.7561C316.825 50.3881 288.113 85.1506 288.113 85.1506H380.735C380.899 85.1506 381.064 83.9933 381.237 83.3453C385.603 67.0026 393.976 52.6001 406.123 40.2841C414.833 31.4521 425.296 25.152 437.188 19.8173H364.628Z" fill="url(#paint7_linear_120_427)"/>
</g>
<mask id="mask8_120_427" style="mask-type:luminance" maskUnits="userSpaceOnUse" x="387" y="21" width="201" height="291">
<path d="M521.675 21.152H482.715C455.493 21.152 432.317 29.5655 415.695 46.4215C405.171 57.0922 396.488 70.2657 392.332 85.8284C389.62 95.9724 387.208 106.774 387.208 118.575V311.818H415.208V118.963C415.208 97.4338 421.723 79.9708 433.524 68.0055C444.984 56.3841 462.467 50.4853 482.715 50.4853H569.212C573.484 39.8186 578.341 29.1506 587.297 21.152H521.675Z" fill="white"/>
</mask>
<g mask="url(#mask8_120_427)">
<path d="M521.675 21.152H482.715C455.493 21.152 432.317 29.5655 415.695 46.4215C405.171 57.0922 396.488 70.2657 392.332 85.8284C389.62 95.9724 387.208 106.774 387.208 118.575V311.818H415.208V118.963C415.208 97.4338 421.723 79.9708 433.524 68.0055C444.984 56.3841 462.467 50.4853 482.715 50.4853H569.212C573.484 39.8186 578.341 29.1506 587.297 21.152H521.675Z" fill="url(#paint8_linear_120_427)"/>
</g>
<mask id="mask9_120_427" style="mask-type:luminance" maskUnits="userSpaceOnUse" x="424" y="59" width="142" height="253">
<path d="M482.715 59.8186C464.98 59.8186 449.832 64.6963 440.137 74.5269C429.952 84.8563 424.541 99.5641 424.541 118.868V118.932V311.818H453.875V118.359L454.488 117.903C454.321 105.968 457.175 97.1694 461.965 92.3147C466.076 88.1454 473.261 86.4853 482.715 86.4853H521.675H526.38C550.283 86.4853 558.427 74.4866 565.233 59.8186H482.715Z" fill="white"/>
</mask>
<g mask="url(#mask9_120_427)">
<path d="M482.715 59.8186C464.98 59.8186 449.832 64.6963 440.137 74.5269C429.952 84.8563 424.541 99.5641 424.541 118.868V118.932V311.818H453.875V118.359L454.488 117.903C454.321 105.968 457.175 97.1694 461.965 92.3147C466.076 88.1454 473.261 86.4853 482.715 86.4853H521.675H526.38C550.283 86.4853 558.427 74.4866 565.233 59.8186H482.715Z" fill="url(#paint9_linear_120_427)"/>
</g>
</g>
<defs>
<linearGradient id="paint0_linear_120_427" x1="208.636" y1="84.8532" x2="289.795" y2="84.8532" gradientUnits="userSpaceOnUse">
<stop stop-color="white"/>
<stop offset="0.412745" stop-color="#2AA9FF"/>
<stop offset="0.528574" stop-color="#2AA9FF"/>
<stop offset="1" stop-color="#005DBA"/>
</linearGradient>
<linearGradient id="paint1_linear_120_427" x1="159.428" y1="115.563" x2="305.187" y2="115.563" gradientUnits="userSpaceOnUse">
<stop stop-color="white"/>
<stop offset="0.412745" stop-color="#2AA9FF"/>
<stop offset="0.528574" stop-color="#2AA9FF"/>
<stop offset="1" stop-color="#005DBA"/>
</linearGradient>
<linearGradient id="paint2_linear_120_427" x1="117.997" y1="155.463" x2="298.788" y2="155.463" gradientUnits="userSpaceOnUse">
<stop stop-color="white"/>
<stop offset="0.412745" stop-color="#2AA9FF"/>
<stop offset="0.528574" stop-color="#2AA9FF"/>
<stop offset="1" stop-color="#005DBA"/>
</linearGradient>
<linearGradient id="paint3_linear_120_427" x1="106.78" y1="197.777" x2="261.684" y2="197.777" gradientUnits="userSpaceOnUse">
<stop stop-color="white"/>
<stop offset="0.412745" stop-color="#2AA9FF"/>
<stop offset="0.528574" stop-color="#2AA9FF"/>
<stop offset="1" stop-color="#005DBA"/>
</linearGradient>
<linearGradient id="paint4_linear_120_427" x1="116.956" y1="231.505" x2="210.75" y2="231.505" gradientUnits="userSpaceOnUse">
<stop stop-color="white"/>
<stop offset="0.412745" stop-color="#2AA9FF"/>
<stop offset="0.528574" stop-color="#2AA9FF"/>
<stop offset="1" stop-color="#005DBA"/>
</linearGradient>
<linearGradient id="paint5_linear_120_427" x1="180.765" y1="19.3824" x2="180.765" y2="298.505" gradientUnits="userSpaceOnUse">
<stop stop-color="#005DBA"/>
<stop offset="1" stop-color="#2AA9FF"/>
</linearGradient>
<linearGradient id="paint6_linear_120_427" x1="68.7988" y1="29.6922" x2="278.775" y2="306.682" gradientUnits="userSpaceOnUse">
<stop stop-color="#FBB03B"/>
<stop offset="0.212543" stop-color="#FBB03B"/>
<stop offset="1" stop-color="#FCEE21"/>
</linearGradient>
<linearGradient id="paint7_linear_120_427" x1="301.398" y1="52.485" x2="399.583" y2="52.485" gradientUnits="userSpaceOnUse">
<stop stop-color="#005DBA"/>
<stop offset="1" stop-color="#2AA9FF"/>
</linearGradient>
<linearGradient id="paint8_linear_120_427" x1="487.253" y1="17.1993" x2="487.253" y2="309.704" gradientUnits="userSpaceOnUse">
<stop stop-color="#005DBA"/>
<stop offset="1" stop-color="#2AA9FF"/>
</linearGradient>
<linearGradient id="paint9_linear_120_427" x1="494.887" y1="16.9673" x2="494.887" y2="309.702" gradientUnits="userSpaceOnUse">
<stop stop-color="#005DBA"/>
<stop offset="1" stop-color="#2AA9FF"/>
</linearGradient>
<clipPath id="clip0_120_427">
<rect width="602" height="336" fill="white"/>
</clipPath>
</defs>
</svg>
